<svg width="100%" height="100%" viewBox="0 0 24 24" fill="none" xmlns="http://www.w3.org/2000/svg">
    <g clip-path="url(#clip0_89_76)">
        <path
            d="M13.5 22C18.311 21.2719 22 17.0975 22 12.0563C22 6.50221 17.523 2 12 2C6.477 2 2 6.50221 2 12.0563C2 17.0975 5.689 21.2729 10.5 22V15.0732H9C8.60218 15.0732 8.22064 14.9143 7.93934 14.6314C7.65804 14.3485 7.5 13.9648 7.5 13.5648C7.5 13.1647 7.65804 12.781 7.93934 12.4981C8.22064 12.2152 8.60218 12.0563 9 12.0563H10.5V10.0451C10.5 9.11157 10.8687 8.21632 11.5251 7.55624C12.1815 6.89617 13.0717 6.52534 14 6.52534H14.5C14.8978 6.52534 15.2794 6.68427 15.5607 6.96716C15.842 7.25004 16 7.63372 16 8.03379C16 8.43385 15.842 8.81753 15.5607 9.10042C15.2794 9.38331 14.8978 9.54224 14.5 9.54224H14C13.8674 9.54224 13.7402 9.59521 13.6464 9.68951C13.5527 9.7838 13.5 9.9117 13.5 10.0451V12.0563H15C15.3978 12.0563 15.7794 12.2152 16.0607 12.4981C16.342 12.781 16.5 13.1647 16.5 13.5648C16.5 13.9648 16.342 14.3485 16.0607 14.6314C15.7794 14.9143 15.3978 15.0732 15 15.0732H13.5V22Z"
            fill="currentColor" />
    </g>
</svg>