<svg width="100%" height="100%" viewBox="0 0 24 24" fill="none" xmlns="http://www.w3.org/2000/svg">
    <g clip-path="url(#clip0_89_71)">
        <path fill-rule="evenodd" clip-rule="evenodd"
            d="M12.5 5.65787C11.2146 5.65816 9.95528 6.02052 8.86631 6.70346C7.77734 7.38639 6.90277 8.36227 6.3428 9.51928C5.78283 10.6763 5.56011 11.9676 5.70014 13.2454C5.84018 14.5231 6.33732 15.7356 7.13461 16.7439C7.93189 17.7521 8.99707 18.5154 10.2081 18.9463C11.4191 19.3771 12.7271 19.4581 13.982 19.18C15.237 18.9019 16.3882 18.2758 17.3038 17.3737C18.2194 16.4715 18.8623 15.3296 19.1589 14.0789H13.5526C13.1339 14.0789 12.7323 13.9126 12.4361 13.6165C12.14 13.3204 11.9737 12.9187 11.9737 12.5C11.9737 12.0812 12.14 11.6796 12.4361 11.3835C12.7323 11.0874 13.1339 10.921 13.5526 10.921H20.9211C21.3398 10.921 21.7414 11.0874 22.0375 11.3835C22.3336 11.6796 22.5 12.0812 22.5 12.5C22.5 14.8123 21.6986 17.0533 20.2323 18.8412C18.7659 20.6292 16.7253 21.8538 14.4576 22.3065C12.19 22.7591 9.83558 22.412 7.79513 21.324C5.75468 20.2361 4.15432 18.4746 3.26648 16.3395C2.37864 14.2044 2.25818 11.8275 2.92562 9.61356C3.59306 7.39961 5.00714 5.48539 6.92715 4.19674C8.84716 2.90809 11.1544 2.32467 13.4562 2.54578C15.758 2.76689 17.912 3.77886 19.5516 5.40945C19.6986 5.5557 19.8154 5.72948 19.8952 5.92085C19.9751 6.11223 20.0164 6.31746 20.017 6.52483C20.0175 6.7322 19.9772 6.93764 19.8983 7.12943C19.8195 7.32122 19.7036 7.4956 19.5574 7.64261C19.4111 7.78962 19.2373 7.90639 19.046 7.98624C18.8546 8.06609 18.6494 8.10747 18.442 8.10801C18.0232 8.10909 17.6211 7.94377 17.3242 7.6484C16.6903 7.01597 15.9379 6.51467 15.1102 6.17312C14.2824 5.83158 13.3955 5.65649 12.5 5.65787Z"
            fill="currentColor" />
    </g>
</svg>