<svg width="100%" height="100%" viewBox="0 0 24 24" fill="none" xmlns="http://www.w3.org/2000/svg">
    <path
        d="M19.7442 12C19.7442 14.0539 18.9283 16.0236 17.476 17.476C16.0236 18.9283 14.0539 19.7442 12 19.7442V21C16.9705 21 21 16.9705 21 12H19.7442ZM12 19.7442C9.94611 19.7442 7.97635 18.9283 6.52403 17.476C5.07172 16.0236 4.25581 14.0539 4.25581 12H3C3 16.9705 7.02949 21 12 21V19.7442ZM4.25581 12C4.25581 9.94611 5.07172 7.97635 6.52403 6.52403C7.97635 5.07172 9.94611 4.25581 12 4.25581V3C7.02949 3 3 7.02949 3 12H4.25581ZM14.9302 13.8837C13.6535 13.8837 12.429 13.3765 11.5263 12.4737C10.6235 11.571 10.1163 10.3465 10.1163 9.06977H8.86046C8.86046 10.6796 9.49996 12.2234 10.6383 13.3617C11.7766 14.5 13.3204 15.1395 14.9302 15.1395V13.8837ZM19.0535 11.5554C18.6253 12.2662 18.0207 12.8541 17.2982 13.262C16.5757 13.67 15.7599 13.8842 14.9302 13.8837V15.1395C15.9763 15.1401 17.0047 14.8702 17.9157 14.356C18.8266 13.8419 19.5892 13.1009 20.1293 12.2051L19.0535 11.5554ZM10.1163 9.06977C10.1159 8.24007 10.3301 7.42437 10.7381 6.70189C11.146 5.97942 11.7339 5.37472 12.4446 4.94651L11.7949 3.87153C10.8991 4.41153 10.1582 5.17394 9.64407 6.08475C9.12991 6.99557 8.85997 8.02385 8.86046 9.06977H10.1163ZM12 4.25581C11.9151 4.25381 11.8344 4.2183 11.7756 4.15702C11.7397 4.12206 11.7157 4.07665 11.707 4.02726C11.7036 4.0013 11.7053 3.92595 11.7949 3.87153L12.4446 4.94651C12.8657 4.692 13.0013 4.22567 12.9519 3.85898C12.9 3.47805 12.6003 3 12 3V4.25581ZM20.1293 12.2051C20.074 12.2947 19.9987 12.2964 19.9727 12.293C19.9233 12.2843 19.8779 12.2603 19.843 12.2244C19.7817 12.1656 19.7462 12.0849 19.7442 12H21C21 11.3997 20.522 11.1 20.141 11.0481C19.7743 10.9987 19.308 11.1343 19.0535 11.5554L20.1293 12.2051Z"
        fill="currentColor" />
</svg>